solid OpenSCAD_Model
  facet normal 0.999507 0.0314119 0
    outer loop
      vertex 21 11 15
      vertex 20.9803 11.6279 0
      vertex 20.9803 11.6279 15
    endloop
  endfacet
  facet normal 0.999507 0.0314119 0
    outer loop
      vertex 20.9803 11.6279 0
      vertex 21 11 15
      vertex 21 11 0
    endloop
  endfacet
  facet normal 0.995562 0.0941082 0
    outer loop
      vertex 20.9803 11.6279 15
      vertex 20.9211 12.2533 0
      vertex 20.9211 12.2533 15
    endloop
  endfacet
  facet normal 0.995562 0.0941082 0
    outer loop
      vertex 20.9211 12.2533 0
      vertex 20.9803 11.6279 15
      vertex 20.9803 11.6279 0
    endloop
  endfacet
  facet normal 0.987688 0.156434 0
    outer loop
      vertex 20.9211 12.2533 15
      vertex 20.8229 12.8738 0
      vertex 20.8229 12.8738 15
    endloop
  endfacet
  facet normal 0.987688 0.156434 0
    outer loop
      vertex 20.8229 12.8738 0
      vertex 20.9211 12.2533 15
      vertex 20.9211 12.2533 0
    endloop
  endfacet
  facet normal 0.975917 0.218144 0
    outer loop
      vertex 20.8229 12.8738 15
      vertex 20.6858 13.4869 0
      vertex 20.6858 13.4869 15
    endloop
  endfacet
  facet normal 0.975917 0.218144 0
    outer loop
      vertex 20.6858 13.4869 0
      vertex 20.8229 12.8738 15
      vertex 20.8229 12.8738 0
    endloop
  endfacet
  facet normal 0.960294 0.278991 0
    outer loop
      vertex 20.6858 13.4869 15
      vertex 20.5106 14.0902 0
      vertex 20.5106 14.0902 15
    endloop
  endfacet
  facet normal 0.960294 0.278991 0
    outer loop
      vertex 20.5106 14.0902 0
      vertex 20.6858 13.4869 15
      vertex 20.6858 13.4869 0
    endloop
  endfacet
  facet normal 0.940881 0.338736 0
    outer loop
      vertex 20.5106 14.0902 15
      vertex 20.2978 14.6812 0
      vertex 20.2978 14.6812 15
    endloop
  endfacet
  facet normal 0.940881 0.338736 0
    outer loop
      vertex 20.2978 14.6812 0
      vertex 20.5106 14.0902 15
      vertex 20.5106 14.0902 0
    endloop
  endfacet
  facet normal 0.917754 0.397149 0
    outer loop
      vertex 20.2978 14.6812 15
      vertex 20.0483 15.2578 0
      vertex 20.0483 15.2578 15
    endloop
  endfacet
  facet normal 0.917754 0.397149 0
    outer loop
      vertex 20.0483 15.2578 0
      vertex 20.2978 14.6812 15
      vertex 20.2978 14.6812 0
    endloop
  endfacet
  facet normal 0.891006 0.453991 0
    outer loop
      vertex 20.0483 15.2578 15
      vertex 19.7631 15.8175 0
      vertex 19.7631 15.8175 15
    endloop
  endfacet
  facet normal 0.891006 0.453991 0
    outer loop
      vertex 19.7631 15.8175 0
      vertex 20.0483 15.2578 15
      vertex 20.0483 15.2578 0
    endloop
  endfacet
  facet normal 0.860742 0.509041 0
    outer loop
      vertex 19.7631 15.8175 15
      vertex 19.4433 16.3583 0
      vertex 19.4433 16.3583 15
    endloop
  endfacet
  facet normal 0.860742 0.509041 0
    outer loop
      vertex 19.4433 16.3583 0
      vertex 19.7631 15.8175 15
      vertex 19.7631 15.8175 0
    endloop
  endfacet
  facet normal 0.827081 0.562083 0
    outer loop
      vertex 19.4433 16.3583 15
      vertex 19.0902 16.8779 0
      vertex 19.0902 16.8779 15
    endloop
  endfacet
  facet normal 0.827081 0.562083 0
    outer loop
      vertex 19.0902 16.8779 0
      vertex 19.4433 16.3583 15
      vertex 19.4433 16.3583 0
    endloop
  endfacet
  facet normal 0.790153 0.612909 0
    outer loop
      vertex 19.0902 16.8779 15
      vertex 18.7051 17.3742 0
      vertex 18.7051 17.3742 15
    endloop
  endfacet
  facet normal 0.790153 0.612909 0
    outer loop
      vertex 18.7051 17.3742 0
      vertex 19.0902 16.8779 15
      vertex 19.0902 16.8779 0
    endloop
  endfacet
  facet normal 0.750112 0.661311 0
    outer loop
      vertex 18.7051 17.3742 15
      vertex 18.2897 17.8455 0
      vertex 18.2897 17.8455 15
    endloop
  endfacet
  facet normal 0.750112 0.661311 0
    outer loop
      vertex 18.2897 17.8455 0
      vertex 18.7051 17.3742 15
      vertex 18.7051 17.3742 0
    endloop
  endfacet
  facet normal 0.707107 0.707107 0
    outer loop
      vertex 18.2897 17.8455 15
      vertex 17.8455 18.2897 0
      vertex 17.8455 18.2897 15
    endloop
  endfacet
  facet normal 0.707107 0.707107 0
    outer loop
      vertex 17.8455 18.2897 0
      vertex 18.2897 17.8455 15
      vertex 18.2897 17.8455 0
    endloop
  endfacet
  facet normal 0.661311 0.750112 -0
    outer loop
      vertex 17.8455 18.2897 0
      vertex 17.3742 18.7051 15
      vertex 17.8455 18.2897 15
    endloop
  endfacet
  facet normal 0.661311 0.750112 0
    outer loop
      vertex 17.3742 18.7051 15
      vertex 17.8455 18.2897 0
      vertex 17.3742 18.7051 0
    endloop
  endfacet
  facet normal 0.612909 0.790153 -0
    outer loop
      vertex 17.3742 18.7051 0
      vertex 16.8779 19.0902 15
      vertex 17.3742 18.7051 15
    endloop
  endfacet
  facet normal 0.612909 0.790153 0
    outer loop
      vertex 16.8779 19.0902 15
      vertex 17.3742 18.7051 0
      vertex 16.8779 19.0902 0
    endloop
  endfacet
  facet normal 0.562083 0.827081 -0
    outer loop
      vertex 16.8779 19.0902 0
      vertex 16.3583 19.4433 15
      vertex 16.8779 19.0902 15
    endloop
  endfacet
  facet normal 0.562083 0.827081 0
    outer loop
      vertex 16.3583 19.4433 15
      vertex 16.8779 19.0902 0
      vertex 16.3583 19.4433 0
    endloop
  endfacet
  facet normal 0.509041 0.860742 -0
    outer loop
      vertex 16.3583 19.4433 0
      vertex 15.8175 19.7631 15
      vertex 16.3583 19.4433 15
    endloop
  endfacet
  facet normal 0.509041 0.860742 0
    outer loop
      vertex 15.8175 19.7631 15
      vertex 16.3583 19.4433 0
      vertex 15.8175 19.7631 0
    endloop
  endfacet
  facet normal 0.453991 0.891006 -0
    outer loop
      vertex 15.8175 19.7631 0
      vertex 15.2578 20.0483 15
      vertex 15.8175 19.7631 15
    endloop
  endfacet
  facet normal 0.453991 0.891006 0
    outer loop
      vertex 15.2578 20.0483 15
      vertex 15.8175 19.7631 0
      vertex 15.2578 20.0483 0
    endloop
  endfacet
  facet normal 0.397149 0.917754 -0
    outer loop
      vertex 15.2578 20.0483 0
      vertex 14.6812 20.2978 15
      vertex 15.2578 20.0483 15
    endloop
  endfacet
  facet normal 0.397149 0.917754 0
    outer loop
      vertex 14.6812 20.2978 15
      vertex 15.2578 20.0483 0
      vertex 14.6812 20.2978 0
    endloop
  endfacet
  facet normal 0.338736 0.940881 -0
    outer loop
      vertex 14.6812 20.2978 0
      vertex 14.0902 20.5106 15
      vertex 14.6812 20.2978 15
    endloop
  endfacet
  facet normal 0.338736 0.940881 0
    outer loop
      vertex 14.0902 20.5106 15
      vertex 14.6812 20.2978 0
      vertex 14.0902 20.5106 0
    endloop
  endfacet
  facet normal 0.278991 0.960294 -0
    outer loop
      vertex 14.0902 20.5106 0
      vertex 13.4869 20.6858 15
      vertex 14.0902 20.5106 15
    endloop
  endfacet
  facet normal 0.278991 0.960294 0
    outer loop
      vertex 13.4869 20.6858 15
      vertex 14.0902 20.5106 0
      vertex 13.4869 20.6858 0
    endloop
  endfacet
  facet normal 0.218144 0.975917 -0
    outer loop
      vertex 13.4869 20.6858 0
      vertex 12.8738 20.8229 15
      vertex 13.4869 20.6858 15
    endloop
  endfacet
  facet normal 0.218144 0.975917 0
    outer loop
      vertex 12.8738 20.8229 15
      vertex 13.4869 20.6858 0
      vertex 12.8738 20.8229 0
    endloop
  endfacet
  facet normal 0.156434 0.987688 -0
    outer loop
      vertex 12.8738 20.8229 0
      vertex 12.2533 20.9211 15
      vertex 12.8738 20.8229 15
    endloop
  endfacet
  facet normal 0.156434 0.987688 0
    outer loop
      vertex 12.2533 20.9211 15
      vertex 12.8738 20.8229 0
      vertex 12.2533 20.9211 0
    endloop
  endfacet
  facet normal 0.0941082 0.995562 -0
    outer loop
      vertex 12.2533 20.9211 0
      vertex 11.6279 20.9803 15
      vertex 12.2533 20.9211 15
    endloop
  endfacet
  facet normal 0.0941082 0.995562 0
    outer loop
      vertex 11.6279 20.9803 15
      vertex 12.2533 20.9211 0
      vertex 11.6279 20.9803 0
    endloop
  endfacet
  facet normal 0.0314119 0.999507 -0
    outer loop
      vertex 11.6279 20.9803 0
      vertex 11 21 15
      vertex 11.6279 20.9803 15
    endloop
  endfacet
  facet normal 0.0314119 0.999507 0
    outer loop
      vertex 11 21 15
      vertex 11.6279 20.9803 0
      vertex 11 21 0
    endloop
  endfacet
  facet normal -0.0314119 0.999507 0
    outer loop
      vertex 11 21 0
      vertex 10.3721 20.9803 15
      vertex 11 21 15
    endloop
  endfacet
  facet normal -0.0314119 0.999507 0
    outer loop
      vertex 10.3721 20.9803 15
      vertex 11 21 0
      vertex 10.3721 20.9803 0
    endloop
  endfacet
  facet normal -0.0941082 0.995562 0
    outer loop
      vertex 10.3721 20.9803 0
      vertex 9.74667 20.9211 15
      vertex 10.3721 20.9803 15
    endloop
  endfacet
  facet normal -0.0941082 0.995562 0
    outer loop
      vertex 9.74667 20.9211 15
      vertex 10.3721 20.9803 0
      vertex 9.74667 20.9211 0
    endloop
  endfacet
  facet normal -0.156434 0.987688 0
    outer loop
      vertex 9.74667 20.9211 0
      vertex 9.12619 20.8229 15
      vertex 9.74667 20.9211 15
    endloop
  endfacet
  facet normal -0.156434 0.987688 0
    outer loop
      vertex 9.12619 20.8229 15
      vertex 9.74667 20.9211 0
      vertex 9.12619 20.8229 0
    endloop
  endfacet
  facet normal -0.218144 0.975917 0
    outer loop
      vertex 9.12619 20.8229 0
      vertex 8.5131 20.6858 15
      vertex 9.12619 20.8229 15
    endloop
  endfacet
  facet normal -0.218144 0.975917 0
    outer loop
      vertex 8.5131 20.6858 15
      vertex 9.12619 20.8229 0
      vertex 8.5131 20.6858 0
    endloop
  endfacet
  facet normal -0.278991 0.960294 0
    outer loop
      vertex 8.5131 20.6858 0
      vertex 7.90983 20.5106 15
      vertex 8.5131 20.6858 15
    endloop
  endfacet
  facet normal -0.278991 0.960294 0
    outer loop
      vertex 7.90983 20.5106 15
      vertex 8.5131 20.6858 0
      vertex 7.90983 20.5106 0
    endloop
  endfacet
  facet normal -0.338736 0.940881 0
    outer loop
      vertex 7.90983 20.5106 0
      vertex 7.31875 20.2978 15
      vertex 7.90983 20.5106 15
    endloop
  endfacet
  facet normal -0.338736 0.940881 0
    outer loop
      vertex 7.31875 20.2978 15
      vertex 7.90983 20.5106 0
      vertex 7.31875 20.2978 0
    endloop
  endfacet
  facet normal -0.397148 0.917755 0
    outer loop
      vertex 7.31875 20.2978 0
      vertex 6.74221 20.0483 15
      vertex 7.31875 20.2978 15
    endloop
  endfacet
  facet normal -0.397148 0.917755 0
    outer loop
      vertex 6.74221 20.0483 15
      vertex 7.31875 20.2978 0
      vertex 6.74221 20.0483 0
    endloop
  endfacet
  facet normal -0.453991 0.891006 0
    outer loop
      vertex 6.74221 20.0483 0
      vertex 6.18246 19.7631 15
      vertex 6.74221 20.0483 15
    endloop
  endfacet
  facet normal -0.453991 0.891006 0
    outer loop
      vertex 6.18246 19.7631 15
      vertex 6.74221 20.0483 0
      vertex 6.18246 19.7631 0
    endloop
  endfacet
  facet normal -0.509042 0.860742 0
    outer loop
      vertex 6.18246 19.7631 0
      vertex 5.64173 19.4433 15
      vertex 6.18246 19.7631 15
    endloop
  endfacet
  facet normal -0.509042 0.860742 0
    outer loop
      vertex 5.64173 19.4433 15
      vertex 6.18246 19.7631 0
      vertex 5.64173 19.4433 0
    endloop
  endfacet
  facet normal -0.562083 0.827081 0
    outer loop
      vertex 5.64173 19.4433 0
      vertex 5.12215 19.0902 15
      vertex 5.64173 19.4433 15
    endloop
  endfacet
  facet normal -0.562083 0.827081 0
    outer loop
      vertex 5.12215 19.0902 15
      vertex 5.64173 19.4433 0
      vertex 5.12215 19.0902 0
    endloop
  endfacet
  facet normal -0.612908 0.790154 0
    outer loop
      vertex 5.12215 19.0902 0
      vertex 4.62576 18.7051 15
      vertex 5.12215 19.0902 15
    endloop
  endfacet
  facet normal -0.612908 0.790154 0
    outer loop
      vertex 4.62576 18.7051 15
      vertex 5.12215 19.0902 0
      vertex 4.62576 18.7051 0
    endloop
  endfacet
  facet normal -0.661311 0.750112 0
    outer loop
      vertex 4.62576 18.7051 0
      vertex 4.15453 18.2897 15
      vertex 4.62576 18.7051 15
    endloop
  endfacet
  facet normal -0.661311 0.750112 0
    outer loop
      vertex 4.15453 18.2897 15
      vertex 4.62576 18.7051 0
      vertex 4.15453 18.2897 0
    endloop
  endfacet
  facet normal -0.707107 0.707106 0
    outer loop
      vertex 3.71031 17.8455 0
      vertex 4.15453 18.2897 15
      vertex 4.15453 18.2897 0
    endloop
  endfacet
  facet normal -0.707107 0.707106 0
    outer loop
      vertex 4.15453 18.2897 15
      vertex 3.71031 17.8455 0
      vertex 3.71031 17.8455 15
    endloop
  endfacet
  facet normal -0.750111 0.661312 0
    outer loop
      vertex 3.29487 17.3742 0
      vertex 3.71031 17.8455 15
      vertex 3.71031 17.8455 0
    endloop
  endfacet
  facet normal -0.750111 0.661312 0
    outer loop
      vertex 3.71031 17.8455 15
      vertex 3.29487 17.3742 0
      vertex 3.29487 17.3742 15
    endloop
  endfacet
  facet normal -0.790154 0.612908 0
    outer loop
      vertex 2.90983 16.8779 0
      vertex 3.29487 17.3742 15
      vertex 3.29487 17.3742 0
    endloop
  endfacet
  facet normal -0.790154 0.612908 0
    outer loop
      vertex 3.29487 17.3742 15
      vertex 2.90983 16.8779 0
      vertex 2.90983 16.8779 15
    endloop
  endfacet
  facet normal -0.827081 0.562083 0
    outer loop
      vertex 2.55672 16.3583 0
      vertex 2.90983 16.8779 15
      vertex 2.90983 16.8779 0
    endloop
  endfacet
  facet normal -0.827081 0.562083 0
    outer loop
      vertex 2.90983 16.8779 15
      vertex 2.55672 16.3583 0
      vertex 2.55672 16.3583 15
    endloop
  endfacet
  facet normal -0.860743 0.509041 0
    outer loop
      vertex 2.23693 15.8175 0
      vertex 2.55672 16.3583 15
      vertex 2.55672 16.3583 0
    endloop
  endfacet
  facet normal -0.860743 0.509041 0
    outer loop
      vertex 2.55672 16.3583 15
      vertex 2.23693 15.8175 0
      vertex 2.23693 15.8175 15
    endloop
  endfacet
  facet normal -0.891006 0.453991 0
    outer loop
      vertex 1.95173 15.2578 0
      vertex 2.23693 15.8175 15
      vertex 2.23693 15.8175 0
    endloop
  endfacet
  facet normal -0.891006 0.453991 0
    outer loop
      vertex 2.23693 15.8175 15
      vertex 1.95173 15.2578 0
      vertex 1.95173 15.2578 15
    endloop
  endfacet
  facet normal -0.917754 0.397148 0
    outer loop
      vertex 1.70224 14.6812 0
      vertex 1.95173 15.2578 15
      vertex 1.95173 15.2578 0
    endloop
  endfacet
  facet normal -0.917754 0.397148 0
    outer loop
      vertex 1.95173 15.2578 15
      vertex 1.70224 14.6812 0
      vertex 1.70224 14.6812 15
    endloop
  endfacet
  facet normal -0.940881 0.338738 0
    outer loop
      vertex 1.48943 14.0902 0
      vertex 1.70224 14.6812 15
      vertex 1.70224 14.6812 0
    endloop
  endfacet
  facet normal -0.940881 0.338738 0
    outer loop
      vertex 1.70224 14.6812 15
      vertex 1.48943 14.0902 0
      vertex 1.48943 14.0902 15
    endloop
  endfacet
  facet normal -0.960294 0.278991 0
    outer loop
      vertex 1.31417 13.4869 0
      vertex 1.48943 14.0902 15
      vertex 1.48943 14.0902 0
    endloop
  endfacet
  facet normal -0.960294 0.278991 0
    outer loop
      vertex 1.48943 14.0902 15
      vertex 1.31417 13.4869 0
      vertex 1.31417 13.4869 15
    endloop
  endfacet
  facet normal -0.975917 0.218143 0
    outer loop
      vertex 1.17713 12.8738 0
      vertex 1.31417 13.4869 15
      vertex 1.31417 13.4869 0
    endloop
  endfacet
  facet normal -0.975917 0.218143 0
    outer loop
      vertex 1.31417 13.4869 15
      vertex 1.17713 12.8738 0
      vertex 1.17713 12.8738 15
    endloop
  endfacet
  facet normal -0.987688 0.156434 0
    outer loop
      vertex 1.07885 12.2533 0
      vertex 1.17713 12.8738 15
      vertex 1.17713 12.8738 0
    endloop
  endfacet
  facet normal -0.987688 0.156434 0
    outer loop
      vertex 1.17713 12.8738 15
      vertex 1.07885 12.2533 0
      vertex 1.07885 12.2533 15
    endloop
  endfacet
  facet normal -0.995562 0.0941083 0
    outer loop
      vertex 1.01973 11.6279 0
      vertex 1.07885 12.2533 15
      vertex 1.07885 12.2533 0
    endloop
  endfacet
  facet normal -0.995562 0.0941083 0
    outer loop
      vertex 1.07885 12.2533 15
      vertex 1.01973 11.6279 0
      vertex 1.01973 11.6279 15
    endloop
  endfacet
  facet normal -0.999507 0.0314108 0
    outer loop
      vertex 1 11 0
      vertex 1.01973 11.6279 15
      vertex 1.01973 11.6279 0
    endloop
  endfacet
  facet normal -0.999507 0.0314108 0
    outer loop
      vertex 1.01973 11.6279 15
      vertex 1 11 0
      vertex 1 11 15
    endloop
  endfacet
  facet normal -0.999507 -0.0314108 0
    outer loop
      vertex 1.01973 10.3721 0
      vertex 1 11 15
      vertex 1 11 0
    endloop
  endfacet
  facet normal -0.999507 -0.0314108 0
    outer loop
      vertex 1 11 15
      vertex 1.01973 10.3721 0
      vertex 1.01973 10.3721 15
    endloop
  endfacet
  facet normal -0.995562 -0.0941083 0
    outer loop
      vertex 1.07885 9.74667 0
      vertex 1.01973 10.3721 15
      vertex 1.01973 10.3721 0
    endloop
  endfacet
  facet normal -0.995562 -0.0941083 0
    outer loop
      vertex 1.01973 10.3721 15
      vertex 1.07885 9.74667 0
      vertex 1.07885 9.74667 15
    endloop
  endfacet
  facet normal -0.987688 -0.156434 0
    outer loop
      vertex 1.17713 9.12619 0
      vertex 1.07885 9.74667 15
      vertex 1.07885 9.74667 0
    endloop
  endfacet
  facet normal -0.987688 -0.156434 0
    outer loop
      vertex 1.07885 9.74667 15
      vertex 1.17713 9.12619 0
      vertex 1.17713 9.12619 15
    endloop
  endfacet
  facet normal -0.975917 -0.218143 0
    outer loop
      vertex 1.31417 8.5131 0
      vertex 1.17713 9.12619 15
      vertex 1.17713 9.12619 0
    endloop
  endfacet
  facet normal -0.975917 -0.218143 0
    outer loop
      vertex 1.17713 9.12619 15
      vertex 1.31417 8.5131 0
      vertex 1.31417 8.5131 15
    endloop
  endfacet
  facet normal -0.960294 -0.278991 0
    outer loop
      vertex 1.48943 7.90983 0
      vertex 1.31417 8.5131 15
      vertex 1.31417 8.5131 0
    endloop
  endfacet
  facet normal -0.960294 -0.278991 0
    outer loop
      vertex 1.31417 8.5131 15
      vertex 1.48943 7.90983 0
      vertex 1.48943 7.90983 15
    endloop
  endfacet
  facet normal -0.940881 -0.338738 0
    outer loop
      vertex 1.70224 7.31875 0
      vertex 1.48943 7.90983 15
      vertex 1.48943 7.90983 0
    endloop
  endfacet
  facet normal -0.940881 -0.338738 0
    outer loop
      vertex 1.48943 7.90983 15
      vertex 1.70224 7.31875 0
      vertex 1.70224 7.31875 15
    endloop
  endfacet
  facet normal -0.917755 -0.397148 0
    outer loop
      vertex 1.95173 6.74221 0
      vertex 1.70224 7.31875 15
      vertex 1.70224 7.31875 0
    endloop
  endfacet
  facet normal -0.917755 -0.397148 0
    outer loop
      vertex 1.70224 7.31875 15
      vertex 1.95173 6.74221 0
      vertex 1.95173 6.74221 15
    endloop
  endfacet
  facet normal -0.891006 -0.453991 0
    outer loop
      vertex 2.23693 6.18246 0
      vertex 1.95173 6.74221 15
      vertex 1.95173 6.74221 0
    endloop
  endfacet
  facet normal -0.891006 -0.453991 0
    outer loop
      vertex 1.95173 6.74221 15
      vertex 2.23693 6.18246 0
      vertex 2.23693 6.18246 15
    endloop
  endfacet
  facet normal -0.860742 -0.509042 0
    outer loop
      vertex 2.55672 5.64173 0
      vertex 2.23693 6.18246 15
      vertex 2.23693 6.18246 0
    endloop
  endfacet
  facet normal -0.860742 -0.509042 0
    outer loop
      vertex 2.23693 6.18246 15
      vertex 2.55672 5.64173 0
      vertex 2.55672 5.64173 15
    endloop
  endfacet
  facet normal -0.827081 -0.562083 0
    outer loop
      vertex 2.90983 5.12215 0
      vertex 2.55672 5.64173 15
      vertex 2.55672 5.64173 0
    endloop
  endfacet
  facet normal -0.827081 -0.562083 0
    outer loop
      vertex 2.55672 5.64173 15
      vertex 2.90983 5.12215 0
      vertex 2.90983 5.12215 15
    endloop
  endfacet
  facet normal -0.790155 -0.612907 0
    outer loop
      vertex 3.29487 4.62576 0
      vertex 2.90983 5.12215 15
      vertex 2.90983 5.12215 0
    endloop
  endfacet
  facet normal -0.790155 -0.612907 0
    outer loop
      vertex 2.90983 5.12215 15
      vertex 3.29487 4.62576 0
      vertex 3.29487 4.62576 15
    endloop
  endfacet
  facet normal -0.750111 -0.661312 0
    outer loop
      vertex 3.71031 4.15453 0
      vertex 3.29487 4.62576 15
      vertex 3.29487 4.62576 0
    endloop
  endfacet
  facet normal -0.750111 -0.661312 0
    outer loop
      vertex 3.29487 4.62576 15
      vertex 3.71031 4.15453 0
      vertex 3.71031 4.15453 15
    endloop
  endfacet
  facet normal -0.707107 -0.707107 0
    outer loop
      vertex 4.15453 3.71031 0
      vertex 3.71031 4.15453 15
      vertex 3.71031 4.15453 0
    endloop
  endfacet
  facet normal -0.707107 -0.707107 0
    outer loop
      vertex 3.71031 4.15453 15
      vertex 4.15453 3.71031 0
      vertex 4.15453 3.71031 15
    endloop
  endfacet
  facet normal -0.661312 -0.750111 0
    outer loop
      vertex 4.15453 3.71031 0
      vertex 4.62576 3.29487 15
      vertex 4.15453 3.71031 15
    endloop
  endfacet
  facet normal -0.661312 -0.750111 -0
    outer loop
      vertex 4.62576 3.29487 15
      vertex 4.15453 3.71031 0
      vertex 4.62576 3.29487 0
    endloop
  endfacet
  facet normal -0.612907 -0.790155 0
    outer loop
      vertex 4.62576 3.29487 0
      vertex 5.12215 2.90983 15
      vertex 4.62576 3.29487 15
    endloop
  endfacet
  facet normal -0.612907 -0.790155 -0
    outer loop
      vertex 5.12215 2.90983 15
      vertex 4.62576 3.29487 0
      vertex 5.12215 2.90983 0
    endloop
  endfacet
  facet normal -0.562083 -0.827081 0
    outer loop
      vertex 5.12215 2.90983 0
      vertex 5.64173 2.55672 15
      vertex 5.12215 2.90983 15
    endloop
  endfacet
  facet normal -0.562083 -0.827081 -0
    outer loop
      vertex 5.64173 2.55672 15
      vertex 5.12215 2.90983 0
      vertex 5.64173 2.55672 0
    endloop
  endfacet
  facet normal -0.509042 -0.860742 0
    outer loop
      vertex 5.64173 2.55672 0
      vertex 6.18246 2.23693 15
      vertex 5.64173 2.55672 15
    endloop
  endfacet
  facet normal -0.509042 -0.860742 -0
    outer loop
      vertex 6.18246 2.23693 15
      vertex 5.64173 2.55672 0
      vertex 6.18246 2.23693 0
    endloop
  endfacet
  facet normal -0.453991 -0.891006 0
    outer loop
      vertex 6.18246 2.23693 0
      vertex 6.74221 1.95173 15
      vertex 6.18246 2.23693 15
    endloop
  endfacet
  facet normal -0.453991 -0.891006 -0
    outer loop
      vertex 6.74221 1.95173 15
      vertex 6.18246 2.23693 0
      vertex 6.74221 1.95173 0
    endloop
  endfacet
  facet normal -0.397148 -0.917755 0
    outer loop
      vertex 6.74221 1.95173 0
      vertex 7.31875 1.70224 15
      vertex 6.74221 1.95173 15
    endloop
  endfacet
  facet normal -0.397148 -0.917755 -0
    outer loop
      vertex 7.31875 1.70224 15
      vertex 6.74221 1.95173 0
      vertex 7.31875 1.70224 0
    endloop
  endfacet
  facet normal -0.338738 -0.940881 0
    outer loop
      vertex 7.31875 1.70224 0
      vertex 7.90983 1.48943 15
      vertex 7.31875 1.70224 15
    endloop
  endfacet
  facet normal -0.338738 -0.940881 -0
    outer loop
      vertex 7.90983 1.48943 15
      vertex 7.31875 1.70224 0
      vertex 7.90983 1.48943 0
    endloop
  endfacet
  facet normal -0.278991 -0.960294 0
    outer loop
      vertex 7.90983 1.48943 0
      vertex 8.5131 1.31417 15
      vertex 7.90983 1.48943 15
    endloop
  endfacet
  facet normal -0.278991 -0.960294 -0
    outer loop
      vertex 8.5131 1.31417 15
      vertex 7.90983 1.48943 0
      vertex 8.5131 1.31417 0
    endloop
  endfacet
  facet normal -0.218143 -0.975917 0
    outer loop
      vertex 8.5131 1.31417 0
      vertex 9.12619 1.17713 15
      vertex 8.5131 1.31417 15
    endloop
  endfacet
  facet normal -0.218143 -0.975917 -0
    outer loop
      vertex 9.12619 1.17713 15
      vertex 8.5131 1.31417 0
      vertex 9.12619 1.17713 0
    endloop
  endfacet
  facet normal -0.156434 -0.987688 0
    outer loop
      vertex 9.12619 1.17713 0
      vertex 9.74667 1.07885 15
      vertex 9.12619 1.17713 15
    endloop
  endfacet
  facet normal -0.156434 -0.987688 -0
    outer loop
      vertex 9.74667 1.07885 15
      vertex 9.12619 1.17713 0
      vertex 9.74667 1.07885 0
    endloop
  endfacet
  facet normal -0.0941083 -0.995562 0
    outer loop
      vertex 9.74667 1.07885 0
      vertex 10.3721 1.01973 15
      vertex 9.74667 1.07885 15
    endloop
  endfacet
  facet normal -0.0941083 -0.995562 -0
    outer loop
      vertex 10.3721 1.01973 15
      vertex 9.74667 1.07885 0
      vertex 10.3721 1.01973 0
    endloop
  endfacet
  facet normal -0.0314108 -0.999507 0
    outer loop
      vertex 10.3721 1.01973 0
      vertex 11 1 15
      vertex 10.3721 1.01973 15
    endloop
  endfacet
  facet normal -0.0314108 -0.999507 -0
    outer loop
      vertex 11 1 15
      vertex 10.3721 1.01973 0
      vertex 11 1 0
    endloop
  endfacet
  facet normal 0.0314108 -0.999507 0
    outer loop
      vertex 11 1 0
      vertex 11.6279 1.01973 15
      vertex 11 1 15
    endloop
  endfacet
  facet normal 0.0314108 -0.999507 0
    outer loop
      vertex 11.6279 1.01973 15
      vertex 11 1 0
      vertex 11.6279 1.01973 0
    endloop
  endfacet
  facet normal 0.0941083 -0.995562 0
    outer loop
      vertex 11.6279 1.01973 0
      vertex 12.2533 1.07885 15
      vertex 11.6279 1.01973 15
    endloop
  endfacet
  facet normal 0.0941083 -0.995562 0
    outer loop
      vertex 12.2533 1.07885 15
      vertex 11.6279 1.01973 0
      vertex 12.2533 1.07885 0
    endloop
  endfacet
  facet normal 0.156434 -0.987688 0
    outer loop
      vertex 12.2533 1.07885 0
      vertex 12.8738 1.17713 15
      vertex 12.2533 1.07885 15
    endloop
  endfacet
  facet normal 0.156434 -0.987688 0
    outer loop
      vertex 12.8738 1.17713 15
      vertex 12.2533 1.07885 0
      vertex 12.8738 1.17713 0
    endloop
  endfacet
  facet normal 0.218143 -0.975917 0
    outer loop
      vertex 12.8738 1.17713 0
      vertex 13.4869 1.31417 15
      vertex 12.8738 1.17713 15
    endloop
  endfacet
  facet normal 0.218143 -0.975917 0
    outer loop
      vertex 13.4869 1.31417 15
      vertex 12.8738 1.17713 0
      vertex 13.4869 1.31417 0
    endloop
  endfacet
  facet normal 0.278991 -0.960294 0
    outer loop
      vertex 13.4869 1.31417 0
      vertex 14.0902 1.48943 15
      vertex 13.4869 1.31417 15
    endloop
  endfacet
  facet normal 0.278991 -0.960294 0
    outer loop
      vertex 14.0902 1.48943 15
      vertex 13.4869 1.31417 0
      vertex 14.0902 1.48943 0
    endloop
  endfacet
  facet normal 0.338738 -0.940881 0
    outer loop
      vertex 14.0902 1.48943 0
      vertex 14.6812 1.70224 15
      vertex 14.0902 1.48943 15
    endloop
  endfacet
  facet normal 0.338738 -0.940881 0
    outer loop
      vertex 14.6812 1.70224 15
      vertex 14.0902 1.48943 0
      vertex 14.6812 1.70224 0
    endloop
  endfacet
  facet normal 0.397148 -0.917754 0
    outer loop
      vertex 14.6812 1.70224 0
      vertex 15.2578 1.95173 15
      vertex 14.6812 1.70224 15
    endloop
  endfacet
  facet normal 0.397148 -0.917754 0
    outer loop
      vertex 15.2578 1.95173 15
      vertex 14.6812 1.70224 0
      vertex 15.2578 1.95173 0
    endloop
  endfacet
  facet normal 0.453991 -0.891006 0
    outer loop
      vertex 15.2578 1.95173 0
      vertex 15.8175 2.23693 15
      vertex 15.2578 1.95173 15
    endloop
  endfacet
  facet normal 0.453991 -0.891006 0
    outer loop
      vertex 15.8175 2.23693 15
      vertex 15.2578 1.95173 0
      vertex 15.8175 2.23693 0
    endloop
  endfacet
  facet normal 0.509041 -0.860743 0
    outer loop
      vertex 15.8175 2.23693 0
      vertex 16.3583 2.55672 15
      vertex 15.8175 2.23693 15
    endloop
  endfacet
  facet normal 0.509041 -0.860743 0
    outer loop
      vertex 16.3583 2.55672 15
      vertex 15.8175 2.23693 0
      vertex 16.3583 2.55672 0
    endloop
  endfacet
  facet normal 0.562083 -0.827081 0
    outer loop
      vertex 16.3583 2.55672 0
      vertex 16.8779 2.90983 15
      vertex 16.3583 2.55672 15
    endloop
  endfacet
  facet normal 0.562083 -0.827081 0
    outer loop
      vertex 16.8779 2.90983 15
      vertex 16.3583 2.55672 0
      vertex 16.8779 2.90983 0
    endloop
  endfacet
  facet normal 0.612908 -0.790154 0
    outer loop
      vertex 16.8779 2.90983 0
      vertex 17.3742 3.29487 15
      vertex 16.8779 2.90983 15
    endloop
  endfacet
  facet normal 0.612908 -0.790154 0
    outer loop
      vertex 17.3742 3.29487 15
      vertex 16.8779 2.90983 0
      vertex 17.3742 3.29487 0
    endloop
  endfacet
  facet normal 0.661312 -0.750111 0
    outer loop
      vertex 17.3742 3.29487 0
      vertex 17.8455 3.71031 15
      vertex 17.3742 3.29487 15
    endloop
  endfacet
  facet normal 0.661312 -0.750111 0
    outer loop
      vertex 17.8455 3.71031 15
      vertex 17.3742 3.29487 0
      vertex 17.8455 3.71031 0
    endloop
  endfacet
  facet normal 0.707106 -0.707107 0
    outer loop
      vertex 17.8455 3.71031 0
      vertex 18.2897 4.15453 15
      vertex 17.8455 3.71031 15
    endloop
  endfacet
  facet normal 0.707106 -0.707107 0
    outer loop
      vertex 18.2897 4.15453 15
      vertex 17.8455 3.71031 0
      vertex 18.2897 4.15453 0
    endloop
  endfacet
  facet normal 0.750112 -0.661311 0
    outer loop
      vertex 18.2897 4.15453 15
      vertex 18.7051 4.62576 0
      vertex 18.7051 4.62576 15
    endloop
  endfacet
  facet normal 0.750112 -0.661311 0
    outer loop
      vertex 18.7051 4.62576 0
      vertex 18.2897 4.15453 15
      vertex 18.2897 4.15453 0
    endloop
  endfacet
  facet normal 0.790154 -0.612908 0
    outer loop
      vertex 18.7051 4.62576 15
      vertex 19.0902 5.12215 0
      vertex 19.0902 5.12215 15
    endloop
  endfacet
  facet normal 0.790154 -0.612908 0
    outer loop
      vertex 19.0902 5.12215 0
      vertex 18.7051 4.62576 15
      vertex 18.7051 4.62576 0
    endloop
  endfacet
  facet normal 0.827081 -0.562083 0
    outer loop
      vertex 19.0902 5.12215 15
      vertex 19.4433 5.64173 0
      vertex 19.4433 5.64173 15
    endloop
  endfacet
  facet normal 0.827081 -0.562083 0
    outer loop
      vertex 19.4433 5.64173 0
      vertex 19.0902 5.12215 15
      vertex 19.0902 5.12215 0
    endloop
  endfacet
  facet normal 0.860742 -0.509042 0
    outer loop
      vertex 19.4433 5.64173 15
      vertex 19.7631 6.18246 0
      vertex 19.7631 6.18246 15
    endloop
  endfacet
  facet normal 0.860742 -0.509042 0
    outer loop
      vertex 19.7631 6.18246 0
      vertex 19.4433 5.64173 15
      vertex 19.4433 5.64173 0
    endloop
  endfacet
  facet normal 0.891006 -0.453991 0
    outer loop
      vertex 19.7631 6.18246 15
      vertex 20.0483 6.74221 0
      vertex 20.0483 6.74221 15
    endloop
  endfacet
  facet normal 0.891006 -0.453991 0
    outer loop
      vertex 20.0483 6.74221 0
      vertex 19.7631 6.18246 15
      vertex 19.7631 6.18246 0
    endloop
  endfacet
  facet normal 0.917755 -0.397148 0
    outer loop
      vertex 20.0483 6.74221 15
      vertex 20.2978 7.31875 0
      vertex 20.2978 7.31875 15
    endloop
  endfacet
  facet normal 0.917755 -0.397148 0
    outer loop
      vertex 20.2978 7.31875 0
      vertex 20.0483 6.74221 15
      vertex 20.0483 6.74221 0
    endloop
  endfacet
  facet normal 0.940881 -0.338736 0
    outer loop
      vertex 20.2978 7.31875 15
      vertex 20.5106 7.90983 0
      vertex 20.5106 7.90983 15
    endloop
  endfacet
  facet normal 0.940881 -0.338736 0
    outer loop
      vertex 20.5106 7.90983 0
      vertex 20.2978 7.31875 15
      vertex 20.2978 7.31875 0
    endloop
  endfacet
  facet normal 0.960294 -0.278991 0
    outer loop
      vertex 20.5106 7.90983 15
      vertex 20.6858 8.5131 0
      vertex 20.6858 8.5131 15
    endloop
  endfacet
  facet normal 0.960294 -0.278991 0
    outer loop
      vertex 20.6858 8.5131 0
      vertex 20.5106 7.90983 15
      vertex 20.5106 7.90983 0
    endloop
  endfacet
  facet normal 0.975917 -0.218144 0
    outer loop
      vertex 20.6858 8.5131 15
      vertex 20.8229 9.12619 0
      vertex 20.8229 9.12619 15
    endloop
  endfacet
  facet normal 0.975917 -0.218144 0
    outer loop
      vertex 20.8229 9.12619 0
      vertex 20.6858 8.5131 15
      vertex 20.6858 8.5131 0
    endloop
  endfacet
  facet normal 0.987688 -0.156434 0
    outer loop
      vertex 20.8229 9.12619 15
      vertex 20.9211 9.74667 0
      vertex 20.9211 9.74667 15
    endloop
  endfacet
  facet normal 0.987688 -0.156434 0
    outer loop
      vertex 20.9211 9.74667 0
      vertex 20.8229 9.12619 15
      vertex 20.8229 9.12619 0
    endloop
  endfacet
  facet normal 0.995562 -0.0941082 0
    outer loop
      vertex 20.9211 9.74667 15
      vertex 20.9803 10.3721 0
      vertex 20.9803 10.3721 15
    endloop
  endfacet
  facet normal 0.995562 -0.0941082 0
    outer loop
      vertex 20.9803 10.3721 0
      vertex 20.9211 9.74667 15
      vertex 20.9211 9.74667 0
    endloop
  endfacet
  facet normal 0.999507 -0.0314119 0
    outer loop
      vertex 20.9803 10.3721 15
      vertex 21 11 0
      vertex 21 11 15
    endloop
  endfacet
  facet normal 0.999507 -0.0314119 0
    outer loop
      vertex 21 11 0
      vertex 20.9803 10.3721 15
      vertex 20.9803 10.3721 0
    endloop
  endfacet
  facet normal 0 0 -1
    outer loop
      vertex 20.9803 10.3721 0
      vertex 20.9803 11.6279 0
      vertex 21 11 0
    endloop
  endfacet
  facet normal 0 0 -1
    outer loop
      vertex 20.9211 9.74667 0
      vertex 20.9803 11.6279 0
      vertex 20.9803 10.3721 0
    endloop
  endfacet
  facet normal 0 0 -1
    outer loop
      vertex 20.9211 9.74667 0
      vertex 20.9211 12.2533 0
      vertex 20.9803 11.6279 0
    endloop
  endfacet
  facet normal 0 0 -1
    outer loop
      vertex 20.8229 9.12619 0
      vertex 20.9211 12.2533 0
      vertex 20.9211 9.74667 0
    endloop
  endfacet
  facet normal 0 0 -1
    outer loop
      vertex 20.8229 9.12619 0
      vertex 20.8229 12.8738 0
      vertex 20.9211 12.2533 0
    endloop
  endfacet
  facet normal 0 0 -1
    outer loop
      vertex 20.6858 8.5131 0
      vertex 20.8229 12.8738 0
      vertex 20.8229 9.12619 0
    endloop
  endfacet
  facet normal 0 0 -1
    outer loop
      vertex 20.6858 8.5131 0
      vertex 20.6858 13.4869 0
      vertex 20.8229 12.8738 0
    endloop
  endfacet
  facet normal 0 0 -1
    outer loop
      vertex 20.5106 7.90983 0
      vertex 20.6858 13.4869 0
      vertex 20.6858 8.5131 0
    endloop
  endfacet
  facet normal 0 0 -1
    outer loop
      vertex 20.5106 7.90983 0
      vertex 20.5106 14.0902 0
      vertex 20.6858 13.4869 0
    endloop
  endfacet
  facet normal 0 0 -1
    outer loop
      vertex 20.2978 7.31875 0
      vertex 20.5106 14.0902 0
      vertex 20.5106 7.90983 0
    endloop
  endfacet
  facet normal 0 0 -1
    outer loop
      vertex 20.2978 7.31875 0
      vertex 20.2978 14.6812 0
      vertex 20.5106 14.0902 0
    endloop
  endfacet
  facet normal 0 0 -1
    outer loop
      vertex 20.0483 6.74221 0
      vertex 20.2978 14.6812 0
      vertex 20.2978 7.31875 0
    endloop
  endfacet
  facet normal 0 0 -1
    outer loop
      vertex 20.0483 6.74221 0
      vertex 20.0483 15.2578 0
      vertex 20.2978 14.6812 0
    endloop
  endfacet
  facet normal 0 0 -1
    outer loop
      vertex 19.7631 6.18246 0
      vertex 20.0483 15.2578 0
      vertex 20.0483 6.74221 0
    endloop
  endfacet
  facet normal 0 0 -1
    outer loop
      vertex 19.7631 6.18246 0
      vertex 19.7631 15.8175 0
      vertex 20.0483 15.2578 0
    endloop
  endfacet
  facet normal 0 0 -1
    outer loop
      vertex 19.4433 5.64173 0
      vertex 19.7631 15.8175 0
      vertex 19.7631 6.18246 0
    endloop
  endfacet
  facet normal 0 0 -1
    outer loop
      vertex 19.4433 5.64173 0
      vertex 19.4433 16.3583 0
      vertex 19.7631 15.8175 0
    endloop
  endfacet
  facet normal 0 0 -1
    outer loop
      vertex 19.0902 5.12215 0
      vertex 19.4433 16.3583 0
      vertex 19.4433 5.64173 0
    endloop
  endfacet
  facet normal 0 0 -1
    outer loop
      vertex 19.0902 5.12215 0
      vertex 19.0902 16.8779 0
      vertex 19.4433 16.3583 0
    endloop
  endfacet
  facet normal 0 0 -1
    outer loop
      vertex 18.7051 4.62576 0
      vertex 19.0902 16.8779 0
      vertex 19.0902 5.12215 0
    endloop
  endfacet
  facet normal 0 0 -1
    outer loop
      vertex 18.7051 4.62576 0
      vertex 18.7051 17.3742 0
      vertex 19.0902 16.8779 0
    endloop
  endfacet
  facet normal 0 0 -1
    outer loop
      vertex 18.2897 4.15453 0
      vertex 18.7051 17.3742 0
      vertex 18.7051 4.62576 0
    endloop
  endfacet
  facet normal 0 0 -1
    outer loop
      vertex 18.2897 4.15453 0
      vertex 18.2897 17.8455 0
      vertex 18.7051 17.3742 0
    endloop
  endfacet
  facet normal 0 0 -1
    outer loop
      vertex 17.8455 3.71031 0
      vertex 18.2897 17.8455 0
      vertex 18.2897 4.15453 0
    endloop
  endfacet
  facet normal 0 0 -1
    outer loop
      vertex 17.8455 3.71031 0
      vertex 17.8455 18.2897 0
      vertex 18.2897 17.8455 0
    endloop
  endfacet
  facet normal 0 0 -1
    outer loop
      vertex 17.3742 3.29487 0
      vertex 17.8455 18.2897 0
      vertex 17.8455 3.71031 0
    endloop
  endfacet
  facet normal 0 0 -1
    outer loop
      vertex 17.3742 3.29487 0
      vertex 17.3742 18.7051 0
      vertex 17.8455 18.2897 0
    endloop
  endfacet
  facet normal 0 0 -1
    outer loop
      vertex 16.8779 2.90983 0
      vertex 17.3742 18.7051 0
      vertex 17.3742 3.29487 0
    endloop
  endfacet
  facet normal 0 0 -1
    outer loop
      vertex 16.8779 2.90983 0
      vertex 16.8779 19.0902 0
      vertex 17.3742 18.7051 0
    endloop
  endfacet
  facet normal 0 0 -1
    outer loop
      vertex 16.3583 2.55672 0
      vertex 16.8779 19.0902 0
      vertex 16.8779 2.90983 0
    endloop
  endfacet
  facet normal 0 0 -1
    outer loop
      vertex 16.3583 2.55672 0
      vertex 16.3583 19.4433 0
      vertex 16.8779 19.0902 0
    endloop
  endfacet
  facet normal 0 0 -1
    outer loop
      vertex 15.8175 2.23693 0
      vertex 16.3583 19.4433 0
      vertex 16.3583 2.55672 0
    endloop
  endfacet
  facet normal 0 0 -1
    outer loop
      vertex 15.8175 2.23693 0
      vertex 15.8175 19.7631 0
      vertex 16.3583 19.4433 0
    endloop
  endfacet
  facet normal 0 0 -1
    outer loop
      vertex 15.2578 1.95173 0
      vertex 15.8175 19.7631 0
      vertex 15.8175 2.23693 0
    endloop
  endfacet
  facet normal 0 0 -1
    outer loop
      vertex 15.2578 1.95173 0
      vertex 15.2578 20.0483 0
      vertex 15.8175 19.7631 0
    endloop
  endfacet
  facet normal 0 0 -1
    outer loop
      vertex 14.6812 1.70224 0
      vertex 15.2578 20.0483 0
      vertex 15.2578 1.95173 0
    endloop
  endfacet
  facet normal 0 0 -1
    outer loop
      vertex 14.6812 1.70224 0
      vertex 14.6812 20.2978 0
      vertex 15.2578 20.0483 0
    endloop
  endfacet
  facet normal 0 0 -1
    outer loop
      vertex 14.0902 1.48943 0
      vertex 14.6812 20.2978 0
      vertex 14.6812 1.70224 0
    endloop
  endfacet
  facet normal 0 0 -1
    outer loop
      vertex 14.0902 1.48943 0
      vertex 14.0902 20.5106 0
      vertex 14.6812 20.2978 0
    endloop
  endfacet
  facet normal 0 0 -1
    outer loop
      vertex 13.4869 1.31417 0
      vertex 14.0902 20.5106 0
      vertex 14.0902 1.48943 0
    endloop
  endfacet
  facet normal 0 0 -1
    outer loop
      vertex 13.4869 1.31417 0
      vertex 13.4869 20.6858 0
      vertex 14.0902 20.5106 0
    endloop
  endfacet
  facet normal 0 0 -1
    outer loop
      vertex 12.8738 1.17713 0
      vertex 13.4869 20.6858 0
      vertex 13.4869 1.31417 0
    endloop
  endfacet
  facet normal 0 0 -1
    outer loop
      vertex 12.8738 1.17713 0
      vertex 12.8738 20.8229 0
      vertex 13.4869 20.6858 0
    endloop
  endfacet
  facet normal 0 0 -1
    outer loop
      vertex 12.2533 1.07885 0
      vertex 12.8738 20.8229 0
      vertex 12.8738 1.17713 0
    endloop
  endfacet
  facet normal 0 0 -1
    outer loop
      vertex 12.2533 1.07885 0
      vertex 12.2533 20.9211 0
      vertex 12.8738 20.8229 0
    endloop
  endfacet
  facet normal 0 0 -1
    outer loop
      vertex 11.6279 1.01973 0
      vertex 12.2533 20.9211 0
      vertex 12.2533 1.07885 0
    endloop
  endfacet
  facet normal 0 0 -1
    outer loop
      vertex 11.6279 1.01973 0
      vertex 11.6279 20.9803 0
      vertex 12.2533 20.9211 0
    endloop
  endfacet
  facet normal 0 0 -1
    outer loop
      vertex 11 1 0
      vertex 11.6279 20.9803 0
      vertex 11.6279 1.01973 0
    endloop
  endfacet
  facet normal 0 0 -1
    outer loop
      vertex 11 1 0
      vertex 11 21 0
      vertex 11.6279 20.9803 0
    endloop
  endfacet
  facet normal 0 0 -1
    outer loop
      vertex 10.3721 1.01973 0
      vertex 11 21 0
      vertex 11 1 0
    endloop
  endfacet
  facet normal 0 0 -1
    outer loop
      vertex 10.3721 1.01973 0
      vertex 10.3721 20.9803 0
      vertex 11 21 0
    endloop
  endfacet
  facet normal 0 0 -1
    outer loop
      vertex 9.74667 1.07885 0
      vertex 10.3721 20.9803 0
      vertex 10.3721 1.01973 0
    endloop
  endfacet
  facet normal 0 0 -1
    outer loop
      vertex 9.74667 1.07885 0
      vertex 9.74667 20.9211 0
      vertex 10.3721 20.9803 0
    endloop
  endfacet
  facet normal 0 0 -1
    outer loop
      vertex 9.12619 1.17713 0
      vertex 9.74667 20.9211 0
      vertex 9.74667 1.07885 0
    endloop
  endfacet
  facet normal 0 0 -1
    outer loop
      vertex 9.12619 1.17713 0
      vertex 9.12619 20.8229 0
      vertex 9.74667 20.9211 0
    endloop
  endfacet
  facet normal 0 0 -1
    outer loop
      vertex 8.5131 1.31417 0
      vertex 9.12619 20.8229 0
      vertex 9.12619 1.17713 0
    endloop
  endfacet
  facet normal 0 0 -1
    outer loop
      vertex 8.5131 1.31417 0
      vertex 8.5131 20.6858 0
      vertex 9.12619 20.8229 0
    endloop
  endfacet
  facet normal 0 0 -1
    outer loop
      vertex 7.90983 1.48943 0
      vertex 8.5131 20.6858 0
      vertex 8.5131 1.31417 0
    endloop
  endfacet
  facet normal 0 0 -1
    outer loop
      vertex 7.90983 1.48943 0
      vertex 7.90983 20.5106 0
      vertex 8.5131 20.6858 0
    endloop
  endfacet
  facet normal 0 0 -1
    outer loop
      vertex 7.31875 1.70224 0
      vertex 7.90983 20.5106 0
      vertex 7.90983 1.48943 0
    endloop
  endfacet
  facet normal 0 0 -1
    outer loop
      vertex 7.31875 1.70224 0
      vertex 7.31875 20.2978 0
      vertex 7.90983 20.5106 0
    endloop
  endfacet
  facet normal 0 0 -1
    outer loop
      vertex 6.74221 1.95173 0
      vertex 7.31875 20.2978 0
      vertex 7.31875 1.70224 0
    endloop
  endfacet
  facet normal 0 0 -1
    outer loop
      vertex 6.74221 1.95173 0
      vertex 6.74221 20.0483 0
      vertex 7.31875 20.2978 0
    endloop
  endfacet
  facet normal 0 0 -1
    outer loop
      vertex 6.18246 2.23693 0
      vertex 6.74221 20.0483 0
      vertex 6.74221 1.95173 0
    endloop
  endfacet
  facet normal 0 0 -1
    outer loop
      vertex 6.18246 2.23693 0
      vertex 6.18246 19.7631 0
      vertex 6.74221 20.0483 0
    endloop
  endfacet
  facet normal 0 0 -1
    outer loop
      vertex 5.64173 2.55672 0
      vertex 6.18246 19.7631 0
      vertex 6.18246 2.23693 0
    endloop
  endfacet
  facet normal 0 0 -1
    outer loop
      vertex 5.64173 2.55672 0
      vertex 5.64173 19.4433 0
      vertex 6.18246 19.7631 0
    endloop
  endfacet
  facet normal 0 0 -1
    outer loop
      vertex 5.12215 2.90983 0
      vertex 5.64173 19.4433 0
      vertex 5.64173 2.55672 0
    endloop
  endfacet
  facet normal 0 0 -1
    outer loop
      vertex 5.12215 2.90983 0
      vertex 5.12215 19.0902 0
      vertex 5.64173 19.4433 0
    endloop
  endfacet
  facet normal 0 0 -1
    outer loop
      vertex 4.62576 3.29487 0
      vertex 5.12215 19.0902 0
      vertex 5.12215 2.90983 0
    endloop
  endfacet
  facet normal 0 0 -1
    outer loop
      vertex 4.62576 3.29487 0
      vertex 4.62576 18.7051 0
      vertex 5.12215 19.0902 0
    endloop
  endfacet
  facet normal 0 0 -1
    outer loop
      vertex 4.15453 3.71031 0
      vertex 4.62576 18.7051 0
      vertex 4.62576 3.29487 0
    endloop
  endfacet
  facet normal 0 0 -1
    outer loop
      vertex 4.15453 3.71031 0
      vertex 4.15453 18.2897 0
      vertex 4.62576 18.7051 0
    endloop
  endfacet
  facet normal 0 0 -1
    outer loop
      vertex 3.71031 4.15453 0
      vertex 4.15453 18.2897 0
      vertex 4.15453 3.71031 0
    endloop
  endfacet
  facet normal 0 0 -1
    outer loop
      vertex 3.71031 4.15453 0
      vertex 3.71031 17.8455 0
      vertex 4.15453 18.2897 0
    endloop
  endfacet
  facet normal 0 0 -1
    outer loop
      vertex 3.29487 4.62576 0
      vertex 3.71031 17.8455 0
      vertex 3.71031 4.15453 0
    endloop
  endfacet
  facet normal 0 0 -1
    outer loop
      vertex 3.29487 4.62576 0
      vertex 3.29487 17.3742 0
      vertex 3.71031 17.8455 0
    endloop
  endfacet
  facet normal 0 0 -1
    outer loop
      vertex 2.90983 5.12215 0
      vertex 3.29487 17.3742 0
      vertex 3.29487 4.62576 0
    endloop
  endfacet
  facet normal 0 0 -1
    outer loop
      vertex 2.90983 5.12215 0
      vertex 2.90983 16.8779 0
      vertex 3.29487 17.3742 0
    endloop
  endfacet
  facet normal 0 0 -1
    outer loop
      vertex 2.55672 5.64173 0
      vertex 2.90983 16.8779 0
      vertex 2.90983 5.12215 0
    endloop
  endfacet
  facet normal 0 0 -1
    outer loop
      vertex 2.55672 5.64173 0
      vertex 2.55672 16.3583 0
      vertex 2.90983 16.8779 0
    endloop
  endfacet
  facet normal 0 0 -1
    outer loop
      vertex 2.23693 6.18246 0
      vertex 2.55672 16.3583 0
      vertex 2.55672 5.64173 0
    endloop
  endfacet
  facet normal 0 0 -1
    outer loop
      vertex 2.23693 6.18246 0
      vertex 2.23693 15.8175 0
      vertex 2.55672 16.3583 0
    endloop
  endfacet
  facet normal 0 0 -1
    outer loop
      vertex 1.95173 6.74221 0
      vertex 2.23693 15.8175 0
      vertex 2.23693 6.18246 0
    endloop
  endfacet
  facet normal 0 0 -1
    outer loop
      vertex 1.95173 6.74221 0
      vertex 1.95173 15.2578 0
      vertex 2.23693 15.8175 0
    endloop
  endfacet
  facet normal 0 0 -1
    outer loop
      vertex 1.70224 7.31875 0
      vertex 1.95173 15.2578 0
      vertex 1.95173 6.74221 0
    endloop
  endfacet
  facet normal 0 0 -1
    outer loop
      vertex 1.70224 7.31875 0
      vertex 1.70224 14.6812 0
      vertex 1.95173 15.2578 0
    endloop
  endfacet
  facet normal 0 0 -1
    outer loop
      vertex 1.48943 7.90983 0
      vertex 1.70224 14.6812 0
      vertex 1.70224 7.31875 0
    endloop
  endfacet
  facet normal 0 0 -1
    outer loop
      vertex 1.48943 7.90983 0
      vertex 1.48943 14.0902 0
      vertex 1.70224 14.6812 0
    endloop
  endfacet
  facet normal 0 0 -1
    outer loop
      vertex 1.31417 8.5131 0
      vertex 1.48943 14.0902 0
      vertex 1.48943 7.90983 0
    endloop
  endfacet
  facet normal 0 0 -1
    outer loop
      vertex 1.31417 8.5131 0
      vertex 1.31417 13.4869 0
      vertex 1.48943 14.0902 0
    endloop
  endfacet
  facet normal 0 0 -1
    outer loop
      vertex 1.17713 9.12619 0
      vertex 1.31417 13.4869 0
      vertex 1.31417 8.5131 0
    endloop
  endfacet
  facet normal 0 0 -1
    outer loop
      vertex 1.17713 9.12619 0
      vertex 1.17713 12.8738 0
      vertex 1.31417 13.4869 0
    endloop
  endfacet
  facet normal 0 0 -1
    outer loop
      vertex 1.07885 9.74667 0
      vertex 1.17713 12.8738 0
      vertex 1.17713 9.12619 0
    endloop
  endfacet
  facet normal 0 0 -1
    outer loop
      vertex 1.07885 9.74667 0
      vertex 1.07885 12.2533 0
      vertex 1.17713 12.8738 0
    endloop
  endfacet
  facet normal 0 0 -1
    outer loop
      vertex 1.01973 10.3721 0
      vertex 1.07885 12.2533 0
      vertex 1.07885 9.74667 0
    endloop
  endfacet
  facet normal 0 0 -1
    outer loop
      vertex 1.01973 10.3721 0
      vertex 1.01973 11.6279 0
      vertex 1.07885 12.2533 0
    endloop
  endfacet
  facet normal 0 -0 -1
    outer loop
      vertex 1.01973 11.6279 0
      vertex 1.01973 10.3721 0
      vertex 1 11 0
    endloop
  endfacet
  facet normal 0 0 1
    outer loop
      vertex 20.9803 11.6279 15
      vertex 20.9803 10.3721 15
      vertex 21 11 15
    endloop
  endfacet
  facet normal 0 0 1
    outer loop
      vertex 20.9211 12.2533 15
      vertex 20.9803 10.3721 15
      vertex 20.9803 11.6279 15
    endloop
  endfacet
  facet normal 0 0 1
    outer loop
      vertex 20.9211 12.2533 15
      vertex 20.9211 9.74667 15
      vertex 20.9803 10.3721 15
    endloop
  endfacet
  facet normal 0 0 1
    outer loop
      vertex 20.8229 12.8738 15
      vertex 20.9211 9.74667 15
      vertex 20.9211 12.2533 15
    endloop
  endfacet
  facet normal 0 0 1
    outer loop
      vertex 20.8229 12.8738 15
      vertex 20.8229 9.12619 15
      vertex 20.9211 9.74667 15
    endloop
  endfacet
  facet normal 0 0 1
    outer loop
      vertex 20.6858 13.4869 15
      vertex 20.8229 9.12619 15
      vertex 20.8229 12.8738 15
    endloop
  endfacet
  facet normal 0 0 1
    outer loop
      vertex 20.6858 13.4869 15
      vertex 20.6858 8.5131 15
      vertex 20.8229 9.12619 15
    endloop
  endfacet
  facet normal 0 0 1
    outer loop
      vertex 20.5106 14.0902 15
      vertex 20.6858 8.5131 15
      vertex 20.6858 13.4869 15
    endloop
  endfacet
  facet normal 0 0 1
    outer loop
      vertex 20.5106 14.0902 15
      vertex 20.5106 7.90983 15
      vertex 20.6858 8.5131 15
    endloop
  endfacet
  facet normal 0 0 1
    outer loop
      vertex 20.2978 14.6812 15
      vertex 20.5106 7.90983 15
      vertex 20.5106 14.0902 15
    endloop
  endfacet
  facet normal 0 0 1
    outer loop
      vertex 20.2978 14.6812 15
      vertex 20.2978 7.31875 15
      vertex 20.5106 7.90983 15
    endloop
  endfacet
  facet normal 0 0 1
    outer loop
      vertex 20.0483 15.2578 15
      vertex 20.2978 7.31875 15
      vertex 20.2978 14.6812 15
    endloop
  endfacet
  facet normal 0 0 1
    outer loop
      vertex 20.0483 15.2578 15
      vertex 20.0483 6.74221 15
      vertex 20.2978 7.31875 15
    endloop
  endfacet
  facet normal 0 0 1
    outer loop
      vertex 19.7631 15.8175 15
      vertex 20.0483 6.74221 15
      vertex 20.0483 15.2578 15
    endloop
  endfacet
  facet normal 0 0 1
    outer loop
      vertex 19.7631 15.8175 15
      vertex 19.7631 6.18246 15
      vertex 20.0483 6.74221 15
    endloop
  endfacet
  facet normal 0 0 1
    outer loop
      vertex 19.4433 16.3583 15
      vertex 19.7631 6.18246 15
      vertex 19.7631 15.8175 15
    endloop
  endfacet
  facet normal 0 0 1
    outer loop
      vertex 19.4433 16.3583 15
      vertex 19.4433 5.64173 15
      vertex 19.7631 6.18246 15
    endloop
  endfacet
  facet normal 0 0 1
    outer loop
      vertex 19.0902 16.8779 15
      vertex 19.4433 5.64173 15
      vertex 19.4433 16.3583 15
    endloop
  endfacet
  facet normal 0 0 1
    outer loop
      vertex 19.0902 16.8779 15
      vertex 19.0902 5.12215 15
      vertex 19.4433 5.64173 15
    endloop
  endfacet
  facet normal 0 0 1
    outer loop
      vertex 18.7051 17.3742 15
      vertex 19.0902 5.12215 15
      vertex 19.0902 16.8779 15
    endloop
  endfacet
  facet normal 0 0 1
    outer loop
      vertex 18.7051 17.3742 15
      vertex 18.7051 4.62576 15
      vertex 19.0902 5.12215 15
    endloop
  endfacet
  facet normal 0 0 1
    outer loop
      vertex 18.2897 17.8455 15
      vertex 18.7051 4.62576 15
      vertex 18.7051 17.3742 15
    endloop
  endfacet
  facet normal 0 0 1
    outer loop
      vertex 18.2897 17.8455 15
      vertex 18.2897 4.15453 15
      vertex 18.7051 4.62576 15
    endloop
  endfacet
  facet normal 0 0 1
    outer loop
      vertex 17.8455 18.2897 15
      vertex 18.2897 4.15453 15
      vertex 18.2897 17.8455 15
    endloop
  endfacet
  facet normal 0 0 1
    outer loop
      vertex 17.8455 18.2897 15
      vertex 17.8455 3.71031 15
      vertex 18.2897 4.15453 15
    endloop
  endfacet
  facet normal 0 0 1
    outer loop
      vertex 17.3742 18.7051 15
      vertex 17.8455 3.71031 15
      vertex 17.8455 18.2897 15
    endloop
  endfacet
  facet normal 0 0 1
    outer loop
      vertex 17.3742 18.7051 15
      vertex 17.3742 3.29487 15
      vertex 17.8455 3.71031 15
    endloop
  endfacet
  facet normal 0 0 1
    outer loop
      vertex 16.8779 19.0902 15
      vertex 17.3742 3.29487 15
      vertex 17.3742 18.7051 15
    endloop
  endfacet
  facet normal 0 0 1
    outer loop
      vertex 16.8779 19.0902 15
      vertex 16.8779 2.90983 15
      vertex 17.3742 3.29487 15
    endloop
  endfacet
  facet normal 0 0 1
    outer loop
      vertex 16.3583 19.4433 15
      vertex 16.8779 2.90983 15
      vertex 16.8779 19.0902 15
    endloop
  endfacet
  facet normal 0 0 1
    outer loop
      vertex 16.3583 19.4433 15
      vertex 16.3583 2.55672 15
      vertex 16.8779 2.90983 15
    endloop
  endfacet
  facet normal 0 0 1
    outer loop
      vertex 15.8175 19.7631 15
      vertex 16.3583 2.55672 15
      vertex 16.3583 19.4433 15
    endloop
  endfacet
  facet normal 0 0 1
    outer loop
      vertex 15.8175 19.7631 15
      vertex 15.8175 2.23693 15
      vertex 16.3583 2.55672 15
    endloop
  endfacet
  facet normal 0 0 1
    outer loop
      vertex 15.2578 20.0483 15
      vertex 15.8175 2.23693 15
      vertex 15.8175 19.7631 15
    endloop
  endfacet
  facet normal 0 0 1
    outer loop
      vertex 15.2578 20.0483 15
      vertex 15.2578 1.95173 15
      vertex 15.8175 2.23693 15
    endloop
  endfacet
  facet normal 0 0 1
    outer loop
      vertex 14.6812 20.2978 15
      vertex 15.2578 1.95173 15
      vertex 15.2578 20.0483 15
    endloop
  endfacet
  facet normal 0 0 1
    outer loop
      vertex 14.6812 20.2978 15
      vertex 14.6812 1.70224 15
      vertex 15.2578 1.95173 15
    endloop
  endfacet
  facet normal 0 0 1
    outer loop
      vertex 14.0902 20.5106 15
      vertex 14.6812 1.70224 15
      vertex 14.6812 20.2978 15
    endloop
  endfacet
  facet normal 0 0 1
    outer loop
      vertex 14.0902 20.5106 15
      vertex 14.0902 1.48943 15
      vertex 14.6812 1.70224 15
    endloop
  endfacet
  facet normal 0 0 1
    outer loop
      vertex 13.4869 20.6858 15
      vertex 14.0902 1.48943 15
      vertex 14.0902 20.5106 15
    endloop
  endfacet
  facet normal 0 0 1
    outer loop
      vertex 13.4869 20.6858 15
      vertex 13.4869 1.31417 15
      vertex 14.0902 1.48943 15
    endloop
  endfacet
  facet normal 0 0 1
    outer loop
      vertex 12.8738 20.8229 15
      vertex 13.4869 1.31417 15
      vertex 13.4869 20.6858 15
    endloop
  endfacet
  facet normal 0 0 1
    outer loop
      vertex 12.8738 20.8229 15
      vertex 12.8738 1.17713 15
      vertex 13.4869 1.31417 15
    endloop
  endfacet
  facet normal 0 0 1
    outer loop
      vertex 12.2533 20.9211 15
      vertex 12.8738 1.17713 15
      vertex 12.8738 20.8229 15
    endloop
  endfacet
  facet normal 0 0 1
    outer loop
      vertex 12.2533 20.9211 15
      vertex 12.2533 1.07885 15
      vertex 12.8738 1.17713 15
    endloop
  endfacet
  facet normal 0 0 1
    outer loop
      vertex 11.6279 20.9803 15
      vertex 12.2533 1.07885 15
      vertex 12.2533 20.9211 15
    endloop
  endfacet
  facet normal 0 0 1
    outer loop
      vertex 11.6279 20.9803 15
      vertex 11.6279 1.01973 15
      vertex 12.2533 1.07885 15
    endloop
  endfacet
  facet normal 0 0 1
    outer loop
      vertex 11 21 15
      vertex 11.6279 1.01973 15
      vertex 11.6279 20.9803 15
    endloop
  endfacet
  facet normal 0 0 1
    outer loop
      vertex 11 21 15
      vertex 11 1 15
      vertex 11.6279 1.01973 15
    endloop
  endfacet
  facet normal -0 0 1
    outer loop
      vertex 10.3721 20.9803 15
      vertex 11 1 15
      vertex 11 21 15
    endloop
  endfacet
  facet normal 0 0 1
    outer loop
      vertex 10.3721 20.9803 15
      vertex 10.3721 1.01973 15
      vertex 11 1 15
    endloop
  endfacet
  facet normal -0 0 1
    outer loop
      vertex 9.74667 20.9211 15
      vertex 10.3721 1.01973 15
      vertex 10.3721 20.9803 15
    endloop
  endfacet
  facet normal 0 0 1
    outer loop
      vertex 9.74667 20.9211 15
      vertex 9.74667 1.07885 15
      vertex 10.3721 1.01973 15
    endloop
  endfacet
  facet normal -0 0 1
    outer loop
      vertex 9.12619 20.8229 15
      vertex 9.74667 1.07885 15
      vertex 9.74667 20.9211 15
    endloop
  endfacet
  facet normal 0 0 1
    outer loop
      vertex 9.12619 20.8229 15
      vertex 9.12619 1.17713 15
      vertex 9.74667 1.07885 15
    endloop
  endfacet
  facet normal -0 0 1
    outer loop
      vertex 8.5131 20.6858 15
      vertex 9.12619 1.17713 15
      vertex 9.12619 20.8229 15
    endloop
  endfacet
  facet normal 0 0 1
    outer loop
      vertex 8.5131 20.6858 15
      vertex 8.5131 1.31417 15
      vertex 9.12619 1.17713 15
    endloop
  endfacet
  facet normal -0 0 1
    outer loop
      vertex 7.90983 20.5106 15
      vertex 8.5131 1.31417 15
      vertex 8.5131 20.6858 15
    endloop
  endfacet
  facet normal 0 0 1
    outer loop
      vertex 7.90983 20.5106 15
      vertex 7.90983 1.48943 15
      vertex 8.5131 1.31417 15
    endloop
  endfacet
  facet normal -0 0 1
    outer loop
      vertex 7.31875 20.2978 15
      vertex 7.90983 1.48943 15
      vertex 7.90983 20.5106 15
    endloop
  endfacet
  facet normal 0 0 1
    outer loop
      vertex 7.31875 20.2978 15
      vertex 7.31875 1.70224 15
      vertex 7.90983 1.48943 15
    endloop
  endfacet
  facet normal -0 0 1
    outer loop
      vertex 6.74221 20.0483 15
      vertex 7.31875 1.70224 15
      vertex 7.31875 20.2978 15
    endloop
  endfacet
  facet normal 0 0 1
    outer loop
      vertex 6.74221 20.0483 15
      vertex 6.74221 1.95173 15
      vertex 7.31875 1.70224 15
    endloop
  endfacet
  facet normal -0 0 1
    outer loop
      vertex 6.18246 19.7631 15
      vertex 6.74221 1.95173 15
      vertex 6.74221 20.0483 15
    endloop
  endfacet
  facet normal 0 0 1
    outer loop
      vertex 6.18246 19.7631 15
      vertex 6.18246 2.23693 15
      vertex 6.74221 1.95173 15
    endloop
  endfacet
  facet normal -0 0 1
    outer loop
      vertex 5.64173 19.4433 15
      vertex 6.18246 2.23693 15
      vertex 6.18246 19.7631 15
    endloop
  endfacet
  facet normal 0 0 1
    outer loop
      vertex 5.64173 19.4433 15
      vertex 5.64173 2.55672 15
      vertex 6.18246 2.23693 15
    endloop
  endfacet
  facet normal -0 0 1
    outer loop
      vertex 5.12215 19.0902 15
      vertex 5.64173 2.55672 15
      vertex 5.64173 19.4433 15
    endloop
  endfacet
  facet normal 0 0 1
    outer loop
      vertex 5.12215 19.0902 15
      vertex 5.12215 2.90983 15
      vertex 5.64173 2.55672 15
    endloop
  endfacet
  facet normal -0 0 1
    outer loop
      vertex 4.62576 18.7051 15
      vertex 5.12215 2.90983 15
      vertex 5.12215 19.0902 15
    endloop
  endfacet
  facet normal 0 0 1
    outer loop
      vertex 4.62576 18.7051 15
      vertex 4.62576 3.29487 15
      vertex 5.12215 2.90983 15
    endloop
  endfacet
  facet normal -0 0 1
    outer loop
      vertex 4.15453 18.2897 15
      vertex 4.62576 3.29487 15
      vertex 4.62576 18.7051 15
    endloop
  endfacet
  facet normal 0 0 1
    outer loop
      vertex 4.15453 18.2897 15
      vertex 4.15453 3.71031 15
      vertex 4.62576 3.29487 15
    endloop
  endfacet
  facet normal -0 0 1
    outer loop
      vertex 3.71031 17.8455 15
      vertex 4.15453 3.71031 15
      vertex 4.15453 18.2897 15
    endloop
  endfacet
  facet normal 0 0 1
    outer loop
      vertex 3.71031 17.8455 15
      vertex 3.71031 4.15453 15
      vertex 4.15453 3.71031 15
    endloop
  endfacet
  facet normal -0 0 1
    outer loop
      vertex 3.29487 17.3742 15
      vertex 3.71031 4.15453 15
      vertex 3.71031 17.8455 15
    endloop
  endfacet
  facet normal 0 0 1
    outer loop
      vertex 3.29487 17.3742 15
      vertex 3.29487 4.62576 15
      vertex 3.71031 4.15453 15
    endloop
  endfacet
  facet normal -0 0 1
    outer loop
      vertex 2.90983 16.8779 15
      vertex 3.29487 4.62576 15
      vertex 3.29487 17.3742 15
    endloop
  endfacet
  facet normal 0 0 1
    outer loop
      vertex 2.90983 16.8779 15
      vertex 2.90983 5.12215 15
      vertex 3.29487 4.62576 15
    endloop
  endfacet
  facet normal -0 0 1
    outer loop
      vertex 2.55672 16.3583 15
      vertex 2.90983 5.12215 15
      vertex 2.90983 16.8779 15
    endloop
  endfacet
  facet normal 0 0 1
    outer loop
      vertex 2.55672 16.3583 15
      vertex 2.55672 5.64173 15
      vertex 2.90983 5.12215 15
    endloop
  endfacet
  facet normal -0 0 1
    outer loop
      vertex 2.23693 15.8175 15
      vertex 2.55672 5.64173 15
      vertex 2.55672 16.3583 15
    endloop
  endfacet
  facet normal 0 0 1
    outer loop
      vertex 2.23693 15.8175 15
      vertex 2.23693 6.18246 15
      vertex 2.55672 5.64173 15
    endloop
  endfacet
  facet normal -0 0 1
    outer loop
      vertex 1.95173 15.2578 15
      vertex 2.23693 6.18246 15
      vertex 2.23693 15.8175 15
    endloop
  endfacet
  facet normal 0 0 1
    outer loop
      vertex 1.95173 15.2578 15
      vertex 1.95173 6.74221 15
      vertex 2.23693 6.18246 15
    endloop
  endfacet
  facet normal -0 0 1
    outer loop
      vertex 1.70224 14.6812 15
      vertex 1.95173 6.74221 15
      vertex 1.95173 15.2578 15
    endloop
  endfacet
  facet normal 0 0 1
    outer loop
      vertex 1.70224 14.6812 15
      vertex 1.70224 7.31875 15
      vertex 1.95173 6.74221 15
    endloop
  endfacet
  facet normal -0 0 1
    outer loop
      vertex 1.48943 14.0902 15
      vertex 1.70224 7.31875 15
      vertex 1.70224 14.6812 15
    endloop
  endfacet
  facet normal 0 0 1
    outer loop
      vertex 1.48943 14.0902 15
      vertex 1.48943 7.90983 15
      vertex 1.70224 7.31875 15
    endloop
  endfacet
  facet normal -0 0 1
    outer loop
      vertex 1.31417 13.4869 15
      vertex 1.48943 7.90983 15
      vertex 1.48943 14.0902 15
    endloop
  endfacet
  facet normal 0 0 1
    outer loop
      vertex 1.31417 13.4869 15
      vertex 1.31417 8.5131 15
      vertex 1.48943 7.90983 15
    endloop
  endfacet
  facet normal -0 0 1
    outer loop
      vertex 1.17713 12.8738 15
      vertex 1.31417 8.5131 15
      vertex 1.31417 13.4869 15
    endloop
  endfacet
  facet normal 0 0 1
    outer loop
      vertex 1.17713 12.8738 15
      vertex 1.17713 9.12619 15
      vertex 1.31417 8.5131 15
    endloop
  endfacet
  facet normal -0 0 1
    outer loop
      vertex 1.07885 12.2533 15
      vertex 1.17713 9.12619 15
      vertex 1.17713 12.8738 15
    endloop
  endfacet
  facet normal 0 0 1
    outer loop
      vertex 1.07885 12.2533 15
      vertex 1.07885 9.74667 15
      vertex 1.17713 9.12619 15
    endloop
  endfacet
  facet normal -0 0 1
    outer loop
      vertex 1.01973 11.6279 15
      vertex 1.07885 9.74667 15
      vertex 1.07885 12.2533 15
    endloop
  endfacet
  facet normal 0 0 1
    outer loop
      vertex 1.01973 11.6279 15
      vertex 1.01973 10.3721 15
      vertex 1.07885 9.74667 15
    endloop
  endfacet
  facet normal 0 -0 1
    outer loop
      vertex 1.01973 10.3721 15
      vertex 1.01973 11.6279 15
      vertex 1 11 15
    endloop
  endfacet
endsolid OpenSCAD_Model
